<?xml version="1.0" encoding="UTF-8"?>
<svg xmlns="http://www.w3.org/2000/svg" width="32" height="32" viewBox="0 0 32 32" fill="none">
  <rect width="32" height="32" rx="16" fill="#4A0EFB"></rect>
  <path d="M7.15838 17.9306C6.44537 16.7423 6.44537 15.2577 7.15838 14.0694V14.0694C7.37596 13.7067 7.73641 13.4527 8.1511 13.3698L9.84413 13.0312C9.94499 13.011 10.0359 12.9569 10.1018 12.8779L12.1708 10.395C13.3534 8.97592 13.9447 8.26638 14.4723 8.45742C15 8.64846 15 9.57207 15 11.4193L15 20.5807C15 22.4279 15 23.3515 14.4723 23.5426C13.9447 23.7336 13.3534 23.0241 12.1708 21.605L10.1018 19.1221C10.0359 19.0431 9.94499 18.989 9.84413 18.9688L8.1511 18.6302C7.73641 18.5473 7.37596 18.2933 7.15838 17.9306V17.9306Z" stroke="white"></path>
  <path d="M19.5355 12.4645C20.4684 13.3973 20.9948 14.6611 21 15.9803C21.0052 17.2996 20.4888 18.5674 19.5633 19.5076" stroke="white" stroke-linecap="round"></path>
  <path d="M22.8033 10.3431C24.2026 11.8357 24.9921 13.8577 24.9999 15.9685C25.0077 18.0793 24.2331 20.1078 22.8449 21.6121" stroke="white" stroke-linecap="round"></path>
</svg>
