<?xml version="1.0" encoding="UTF-8"?>
<svg xmlns:x="ns_extend;" xmlns:i="ns_ai;" xmlns:graph="ns_graphs;" xmlns="http://www.w3.org/2000/svg" xmlns:xlink="http://www.w3.org/1999/xlink" version="1.1" id="Layer_1" x="0px" y="0px" viewBox="0 0 142.9 55.4" style="enable-background:new 0 0 142.9 55.4;" xml:space="preserve">
 <style type="text/css">
  .st0{fill:#4A0EFB;}
 </style>
 <metadata>
  
 </metadata>
 <g>
  <g>
   <path class="st0" d="M55,55.4c-3,0-5.5-2.4-5.5-5.5V22.5c-0.6-7.2,9.9-8.4,11-1.3c0.1,0.4,0.1,0.9,0,1.3V50    C60.5,53,58.1,55.4,55,55.4L55,55.4z M71.3,55.4c-3,0-5.5-2.4-5.5-5.5V6c0-3,2.4-5.5,5.4-5.5c3,0,5.5,2.4,5.5,5.5v44    C76.7,52.9,74.3,55.3,71.3,55.4L71.3,55.4z M87.9,55.4c-3,0-5.5-2.4-5.5-5.4V6c-0.6-7.1,9.9-8.4,11-1.3c0.1,0.4,0.1,0.8,0,1.3v44    C93.4,53,90.9,55.4,87.9,55.4L87.9,55.4z M21.9,55.4C2.4,55.3-7.3,31.7,6.5,17.9C20.4,4.2,44,14,44,33.5    C44,45.6,34.1,55.5,21.9,55.4L21.9,55.4z M21.9,22.5c-9.8,0-14.6,12.5-7.5,19.3c7.2,6.8,18.9,1.5,18.6-8.3    C33,27.4,28,22.5,21.9,22.5L21.9,22.5z M121,55.4c-19.6,0-29.3-23.6-15.5-37.5c13.8-13.8,37.5-4.1,37.5,15.5    C142.9,45.6,133.1,55.4,121,55.4L121,55.4z M121,22.5c-9.8,0-14.7,12.2-7.7,19.1c6.9,6.9,18.7,2,18.7-7.7    C132.2,27.7,127.2,22.5,121,22.5L121,22.5z M121,22.6">
   </path>
  </g>
  <path class="st0" d="M60.5,6c0,3-2.5,5.5-5.5,5.5c-3,0-5.5-2.5-5.5-5.5C49.5,3,52,0.5,55,0.5C58.1,0.5,60.5,3,60.5,6L60.5,6z    M60.5,6">
  </path>
  <path class="st0" d="M11,14.5V6.3c0.2-3-2-5.6-5-5.8C2.7,0.3,0,2.8,0,6l0.1,26.4C0.5,25,6.4,18.9,11,14.5L11,14.5z M11,14.5">
  </path>
 </g>
</svg>
